# xmcd
#
# Track frame offsets: 
#        150
#        26612
#        60134
#        99910
#        137429
#        162131
#        198029
#        224194
#        264706
#
# Disc length: 4086 seconds
#
# Revision: 0
# Processed by: cddbd v1.4PL0 Copyright (c) Steve Scherf et al.
# Submitted via: ExactAudioCopy v0.90b4
#
DISCID=730ff409
DTITLE=Various Artist - One³ [QUB³ Records]
DYEAR=1999
DGENRE=Goa
TTITLE0=MALE OR FEMALE/Kiss (Anatomix)
TTITLE1=MASA/Walk In Space
TTITLE2=MIND OVER RHYTHM/Addiction
TTITLE3=ASCENDENCE/The Lost Track
TTITLE4=VOODOO PEOPLE/Book Of Shadows
TTITLE5=MASA/Replay From Earth
TTITLE6=CLIP/Tumbler
TTITLE7=MAGNAT/Liberate
TTITLE8=MALE OR FEMALE/Water (Drowning Dub)
EXTD=
EXTT0=
EXTT1=
EXTT2=
EXTT3=
EXTT4=
EXTT5=
EXTT6=
EXTT7=
EXTT8=
PLAYORDER=
